# Blender 4.3.2
# www.blender.org
o Plane
v -0.000000 0.400000 0.200000
v 0.000000 -0.000000 0.200000
v -0.000000 0.400000 -0.200000
v 0.000000 -0.000000 -0.200000
v 0.200000 -0.000000 0.000000
v 0.200000 0.400000 -0.000000
v -0.200000 -0.000000 0.000000
v -0.200000 0.400000 -0.000000
v -0.000000 0.400000 0.200000
v 0.000000 -0.000000 0.200000
v -0.000000 0.400000 -0.200000
v 0.000000 -0.000000 -0.200000
v 0.200000 -0.000000 0.000000
v 0.200000 0.400000 -0.000000
v -0.200000 -0.000000 0.000000
v -0.200000 0.400000 -0.000000
vn 1.0000 -0.0000 -0.0000
vn -0.0000 -0.0000 1.0000
vn -1.0000 -0.0000 -0.0000
vn -0.0000 -0.0000 -1.0000
vt 1.000000 1.000000
vt -0.000000 0.000000
vt 1.000000 -0.000000
vt 0.000000 1.000000
s 0
f 2/1/1 3/2/1 1/3/1
f 7/1/2 6/2/2 8/3/2
f 11/2/3 10/1/3 9/3/3
f 14/2/4 15/1/4 16/3/4
f 2/1/1 4/4/1 3/2/1
f 7/1/2 5/4/2 6/2/2
f 11/2/3 12/4/3 10/1/3
f 14/2/4 13/4/4 15/1/4
